<?xml version="1.0" encoding="UTF-8" standalone="no"?>
<!-- Created with Inkscape (http://www.inkscape.org/) -->

<svg
   width="210"
   height="210"
   viewBox="0 0 55.562499 55.562499"
   version="1.1"
   id="svg5"
   sodipodi:docname="glyphs.svg"
   inkscape:version="1.1 (ce6663b3b7, 2021-05-25)"
   inkscape:export-filename="/home/alex/Documents/dev/diabolic-script-generator/assets/repeat.png"
   inkscape:export-xdpi="96"
   inkscape:export-ydpi="96"
   xmlns:inkscape="http://www.inkscape.org/namespaces/inkscape"
   xmlns:sodipodi="http://sodipodi.sourceforge.net/DTD/sodipodi-0.dtd"
   xmlns="http://www.w3.org/2000/svg"
   xmlns:svg="http://www.w3.org/2000/svg">
  <sodipodi:namedview
     id="namedview7"
     pagecolor="#ffffff"
     bordercolor="#666666"
     borderopacity="1.0"
     inkscape:pageshadow="2"
     inkscape:pageopacity="0.0"
     inkscape:pagecheckerboard="true"
     inkscape:document-units="px"
     showgrid="true"
     units="px"
     height="210px"
     inkscape:zoom="3.9408308"
     inkscape:cx="105.43462"
     inkscape:cy="167.3505"
     inkscape:window-width="1920"
     inkscape:window-height="958"
     inkscape:window-x="0"
     inkscape:window-y="0"
     inkscape:window-maximized="1"
     inkscape:current-layer="layer36">
    <inkscape:grid
       type="xygrid"
       id="grid882"
       empspacing="5"
       spacingx="0.26458333"
       dotted="true"
       originx="0"
       originy="0"
       empcolor="#00d453"
       empopacity="0.25098039" />
  </sodipodi:namedview>
  <defs
     id="defs2" />
  <g
     inkscape:groupmode="layer"
     id="layer2"
     inkscape:label="guide"
     style="display:none;opacity:1">
    <path
       style="fill:#000000;fill-opacity:1;stroke:none;stroke-width:0.264583px;stroke-linecap:butt;stroke-linejoin:miter;stroke-opacity:1"
       d="M 47.624999,23.8125 H 23.8125 V 47.624999 H 31.75 V 31.75 h 15.874999 z"
       id="path918" />
  </g>
  <g
     inkscape:groupmode="layer"
     id="layer36"
     inkscape:label="repeat 1">
    <path
       id="path1581"
       style="fill:#000000;stroke:none;stroke-width:0.264583px;stroke-linecap:butt;stroke-linejoin:miter;stroke-opacity:1;fill-opacity:1"
       d="m 27.78125,46.302083 c 0,0 1.322917,1.322916 1.322917,2.645833 v 2.645833 c 0,1.322917 1.322916,1.322917 1.322916,1.322917 H 31.75 v 1.322917 h -7.9375 v -1.322917 h 1.322917 c 0,0 1.322916,0 1.322916,-1.322917 v -2.645833 c 0,-1.322917 1.322917,-2.645833 1.322917,-2.645833"
       sodipodi:nodetypes="cssccccccssc" />
  </g>
  <g
     inkscape:groupmode="layer"
     id="layer1"
     inkscape:label="vowels"
     style="display:none">
    <rect
       style="fill:none;stroke:none;stroke-width:0.223613"
       id="rect1115"
       width="55.5625"
       height="13.229167"
       x="0"
       y="21.166666"
       inkscape:export-filename="/home/alex/Documents/dev/diabolic-script-generator/assets/a.png"
       inkscape:export-xdpi="96"
       inkscape:export-ydpi="96" />
  </g>
  <g
     inkscape:groupmode="layer"
     id="layer27"
     inkscape:label="cap"
     style="display:none">
    <path
       id="path12573"
       style="fill:#000000;fill-opacity:1;stroke:none;stroke-width:0.264583px;stroke-linecap:butt;stroke-linejoin:miter;stroke-opacity:1"
       d="m 19.84375,54.239583 v -1.322917 c 0,0 3.96875,0 3.96875,-3.96875 V 47.624999 H 31.75 v 1.322917 c 0,3.96875 3.96875,3.96875 3.96875,3.96875 v 1.322917 z"
       sodipodi:nodetypes="ccsccsccc" />
  </g>
  <g
     inkscape:groupmode="layer"
     id="layer28"
     inkscape:label="connect"
     style="display:none">
    <rect
       style="fill:#000000;fill-opacity:1;stroke:none;stroke-width:0.264583;stroke-opacity:1"
       id="rect12636"
       width="7.9375"
       height="7.9375"
       x="23.8125"
       y="47.625" />
  </g>
  <g
     inkscape:groupmode="layer"
     id="layer29"
     inkscape:label="bar"
     style="display:none">
    <path
       id="path13023"
       style="fill:#000000;fill-opacity:1;stroke:none;stroke-width:0.264583px;stroke-linecap:butt;stroke-linejoin:miter;stroke-opacity:1"
       d="M 10.583334,30.427083 C 9.260417,30.427083 9.260417,31.75 9.260417,31.75 H 7.937501 l -1e-6,-7.9375 h 1.322917 c 0,0 0,1.322917 1.322917,1.322917 h 34.395833 c 1.322917,0 1.322917,-1.322917 1.322917,-1.322917 H 47.625 V 31.75 h -1.322917 c 0,0 0,-1.322917 -1.322916,-1.322917 z"
       sodipodi:nodetypes="ccccccccccccc" />
  </g>
  <g
     inkscape:groupmode="layer"
     id="layer30"
     inkscape:label="exclaim"
     style="display:none">
    <path
       id="path13023-6"
       style="display:inline;fill:#000000;fill-opacity:1;stroke:none;stroke-width:0.264583px;stroke-linecap:butt;stroke-linejoin:miter;stroke-opacity:1"
       d="m 10.583334,42.333333 c -1.322917,0 -1.322917,1.322917 -1.322917,1.322917 H 7.937501 l -1e-6,-7.9375 h 1.322917 c 0,0 0,1.322917 1.322917,1.322917 h 34.395833 c 1.322916,0 1.322916,-1.322917 1.322916,-1.322917 H 47.625 v 7.9375 h -1.322917 c 0,0 0,-1.322917 -1.322916,-1.322917 z"
       sodipodi:nodetypes="ccccccccccccc" />
  </g>
  <g
     inkscape:groupmode="layer"
     id="layer31"
     inkscape:label="question"
     style="display:none">
    <path
       id="path1183"
       style="fill:#000000;fill-opacity:1;stroke:none;stroke-width:0.264583px;stroke-linecap:butt;stroke-linejoin:miter;stroke-opacity:1"
       d="m 23.799936,39.715997 c 5.291666,0 2.66002,5.270851 9.274603,3.947934 6.614584,-1.322916 6.612961,-7.945181 6.612961,-7.945181 0,0 -2.645833,3.96875 -7.9375,3.96875 -5.291666,0 -2.645833,-5.291667 -9.260416,-3.96875 C 15.875,37.041666 15.875,42.333333 15.875,42.333333 c 0,0 2.633269,-2.617336 7.924936,-2.617336 z"
       sodipodi:nodetypes="sscsscs" />
  </g>
  <g
     inkscape:groupmode="layer"
     id="layer32"
     inkscape:label="comma"
     style="display:none">
    <path
       id="path2783"
       style="fill:#000000;fill-opacity:1;stroke:none;stroke-width:0.264583px;stroke-linecap:butt;stroke-linejoin:miter;stroke-opacity:1"
       d="m 47.625,23.8125 c 0,0 -5.291666,6.614583 -19.84375,6.614583 -14.552084,0 -19.8437501,-6.614583 -19.8437501,-6.614583 0,0 3.9687501,9.260416 19.8437501,9.260416 15.875,0 19.84375,-9.260416 19.84375,-9.260416 z"
       sodipodi:nodetypes="ccccc" />
  </g>
  <g
     inkscape:groupmode="layer"
     id="layer33"
     inkscape:label="colon"
     style="display:none">
    <path
       id="path3019"
       style="fill:#000000;fill-opacity:1;stroke:none;stroke-width:0.264583px;stroke-linecap:butt;stroke-linejoin:miter;stroke-opacity:1"
       d="m 31.75,31.75 c 0,0 -2.645833,-7.9375 -11.90625,-7.9375 -9.260417,0 -11.9062501,7.9375 -11.9062501,7.9375 0,0 2.6458331,-5.291667 11.9062501,-5.291667 C 29.104167,26.458333 31.75,31.75 31.75,31.75 Z"
       sodipodi:nodetypes="ccccc" />
    <path
       id="path3177"
       style="fill:#000000;fill-opacity:1;stroke:none;stroke-width:0.264583px;stroke-linecap:butt;stroke-linejoin:miter;stroke-opacity:1"
       d="m 47.625,31.749999 c 0,0 -2.645833,-7.9375 -11.90625,-7.9375 -9.260417,0 -11.90625,7.9375 -11.90625,7.9375 0,0 2.645833,-5.291667 11.90625,-5.291667 9.260417,0 11.90625,5.291667 11.90625,5.291667 z"
       sodipodi:nodetypes="ccccc" />
  </g>
  <g
     inkscape:groupmode="layer"
     id="layer35"
     inkscape:label="stop"
     style="display:none">
    <circle
       style="fill:#000000;fill-opacity:1;stroke:none;stroke-width:0.264583"
       id="path3307"
       cx="27.78125"
       cy="37.041668"
       r="3.96875" />
  </g>
  <g
     inkscape:groupmode="layer"
     id="layer9"
     inkscape:label="voice"
     style="display:none">
    <path
       id="path1943"
       style="fill:#000000;fill-opacity:1;stroke:none;stroke-width:0.264583px;stroke-linecap:butt;stroke-linejoin:miter;stroke-opacity:1"
       d="m 35.71875,39.687499 v -1.322916 c 0,0 1.322916,0 1.322916,-1.322917 V 18.520833 c 0,-1.322917 -1.322916,-1.322917 -1.322916,-1.322917 V 15.875 h 7.937499 v 1.322916 c 0,0 -1.322916,0 -1.322916,1.322917 v 18.520833 c 0,1.322917 1.322916,1.322917 1.322916,1.322917 v 1.322916 z"
       sodipodi:nodetypes="ccccccccccccc" />
  </g>
  <g
     inkscape:groupmode="layer"
     id="layer11"
     inkscape:label="voice 2"
     style="display:none">
    <path
       id="path3106"
       style="fill:#000000;fill-opacity:1;stroke:none;stroke-width:0.264583px;stroke-linecap:butt;stroke-linejoin:miter;stroke-opacity:1"
       d="m 39.687499,43.656249 h -1.322916 c 0,0 0,-1.322916 -1.322917,-1.322916 H 18.520833 c -1.322917,0 -1.322917,1.322916 -1.322917,1.322916 H 15.875 V 35.71875 h 1.322916 c 0,0 0,1.322916 1.322917,1.322916 h 18.520833 c 1.322917,0 1.322917,-1.322916 1.322917,-1.322916 h 1.322916 z"
       sodipodi:nodetypes="ccccccccccccc" />
  </g>
  <g
     inkscape:groupmode="layer"
     id="layer3"
     inkscape:label="a"
     style="display:none">
    <path
       style="fill:#000000;fill-opacity:1;stroke:none;stroke-width:0.264583px;stroke-linecap:butt;stroke-linejoin:miter;stroke-opacity:1"
       d="m 47.624999,27.781249 c 0,0 -5.291666,-2.645833 -10.583333,-2.645833 -5.291666,0 -5.291666,2.645833 -5.291666,2.645833 0,0 0,2.645833 5.291666,2.645833 5.291667,0 10.583333,-2.645833 10.583333,-2.645833"
       id="path921" />
  </g>
  <g
     inkscape:groupmode="layer"
     id="layer4"
     inkscape:label="e"
     style="display:none">
    <path
       style="fill:#000000;fill-opacity:1;stroke:none;stroke-width:0.264583px;stroke-linecap:butt;stroke-linejoin:miter;stroke-opacity:1"
       d="m 35.71875,31.749999 c 0,0 -2.645834,-2.645834 -2.645834,-5.291667 0,-2.645833 2.645834,-2.645833 2.645834,-2.645833 0,0 2.645833,0 2.645833,2.645833 0,2.645833 -2.645833,5.291667 -2.645833,5.291667 z"
       id="path1197" />
    <path
       style="fill:#000000;fill-opacity:1;stroke:none;stroke-width:0.264583px;stroke-linecap:butt;stroke-linejoin:miter;stroke-opacity:1"
       d="m 43.656249,31.749999 c 0,0 -2.645833,-2.645834 -2.645833,-5.291667 0,-2.645833 2.645833,-2.645833 2.645833,-2.645833 0,0 2.645834,0 2.645834,2.645833 0,2.645833 -2.645834,5.291667 -2.645834,5.291667 z"
       id="path1199" />
  </g>
  <g
     inkscape:groupmode="layer"
     id="layer5"
     inkscape:label="i"
     style="display:none">
    <path
       style="fill:#000000;fill-opacity:1;stroke:none;stroke-width:0.264583px;stroke-linecap:butt;stroke-linejoin:miter;stroke-opacity:1"
       d="m 46.302083,30.427082 c 0,0 0,-5.291666 -6.614583,-5.291666 -6.614584,0 -6.614584,2.645833 -6.614584,2.645833 0,0 1.322917,-1.322917 6.614584,-1.322917 5.291666,0 6.614583,3.96875 6.614583,3.96875 z"
       id="path1315"
       sodipodi:nodetypes="cscsc" />
    <circle
       style="fill:#000000;fill-opacity:1;stroke:none;stroke-width:0.264583;stroke-opacity:1"
       id="path1456"
       cx="35.057293"
       cy="28.442709"
       r="1.984375" />
  </g>
  <g
     inkscape:groupmode="layer"
     id="layer6"
     inkscape:label="o"
     style="display:none">
    <circle
       style="fill:#000000;fill-opacity:1;stroke:none;stroke-width:0.264583;stroke-opacity:1"
       id="path1605"
       cx="39.6875"
       cy="27.78125"
       r="3.96875" />
  </g>
  <g
     inkscape:groupmode="layer"
     id="layer7"
     inkscape:label="u"
     style="display:none">
    <path
       style="fill:#000000;fill-opacity:1;stroke:none;stroke-width:0.264583px;stroke-linecap:butt;stroke-linejoin:miter;stroke-opacity:1"
       d="m 47.624999,23.812499 c 0,0 -15.874999,0 -15.874999,3.96875 0,3.96875 15.874999,3.96875 15.874999,3.96875 0,0 -11.906249,-1.322917 -11.906249,-3.96875 0,-2.645833 11.906249,-3.96875 11.906249,-3.96875 z"
       id="path1721" />
  </g>
  <g
     inkscape:groupmode="layer"
     id="layer8"
     inkscape:label="b / p"
     style="display:none">
    <path
       style="fill:#000000;fill-opacity:1;stroke:none;stroke-width:0.264583px;stroke-linecap:butt;stroke-linejoin:miter;stroke-opacity:1"
       d="M 23.8125,47.624999 H 31.75 v -6.614583 c 0,0 0,-3.96875 -5.291667,-3.96875 -5.291667,0 -15.875,2.38125 -15.875,-5.291666 0,-7.672917 10.583333,-5.291667 10.583333,-5.291667 0,0 2.645834,0 7.9375,2.645833 C 34.395833,31.75 38.364583,31.75 38.364583,31.75 h 9.260416 V 23.8125 H 15.875 c 0,0 -9.2604168,0 -9.2604168,7.9375 0,7.9375 10.5833328,7.9375 10.5833328,7.9375 H 23.8125 Z"
       id="path1837" />
  </g>
  <g
     inkscape:groupmode="layer"
     id="layer10"
     inkscape:label="c / g / k"
     style="display:none">
    <path
       id="path2217"
       style="fill:#000000;fill-opacity:1;stroke:none;stroke-width:0.999999px;stroke-linecap:butt;stroke-linejoin:miter;stroke-opacity:1"
       d="M 66.404297,28.453125 C 54.904606,28.437599 45.781252,34.218753 40,40 c -9.999999,10.000003 -19.999999,29.999997 0,55 20.000002,25 80,25 80,25 0,0 0,-59.999998 -25,-80 C 84.453124,31.5625 74.795963,28.464455 66.404297,28.453125 Z M 55.039062,36.716797 C 61.362152,36.650116 69.062498,39.0625 75,45 84.999999,54.999999 90,90 90,90 90,90 54.999999,84.999999 45,75 35,64.999997 35.000001,50.000001 40,45 l 5,-5 c 2.031251,-2.03125 5.712738,-3.23758 10.039062,-3.283203 z"
       transform="scale(0.26458333)" />
  </g>
  <g
     inkscape:groupmode="layer"
     id="layer12"
     inkscape:label="k hook"
     style="display:none">
    <path
       style="fill:#000000;fill-opacity:1;stroke:none;stroke-width:0.264583px;stroke-linecap:butt;stroke-linejoin:miter;stroke-opacity:1"
       d="m 7.9374999,27.78125 c 0,0 -1.3229167,15.874999 9.2604161,15.874999 10.583334,0 7.937501,0 7.937501,0 V 39.6875 H 19.84375 c 0,0 -11.9062501,1.322916 -11.9062501,-11.90625 z"
       id="path3399" />
  </g>
  <g
     inkscape:groupmode="layer"
     id="layer13"
     inkscape:label="d / t"
     style="display:none">
    <path
       id="path3683"
       style="fill:#000000;fill-opacity:1;stroke:none;stroke-width:0.264583px;stroke-linecap:butt;stroke-linejoin:miter;stroke-opacity:1"
       d="M 47.624999,31.749999 H 15.875 c -6.6145835,0 -6.6145835,6.614584 -6.6145835,6.614584 H 7.9374998 l 10e-8,-21.166667 h 1.3229167 c 0,0 0,6.614584 6.6145834,6.614584 h 31.749999 z"
       sodipodi:nodetypes="csccccscc" />
    <path
       style="fill:#000000;fill-opacity:1;stroke:none;stroke-width:0.264583px;stroke-linecap:butt;stroke-linejoin:miter;stroke-opacity:1"
       d="M 23.8125,47.624999 V 22.489583 c 0,0 0,-15.8749998 13.229166,-15.8749998 13.229167,0 13.229167,2.6458334 11.90625,5.2916668 -1.322917,2.645833 -3.96875,2.645833 -7.9375,-1.322917 C 37.041666,6.6145832 31.75,7.9374999 31.75,14.552083 c 0,6.614583 0,33.072916 0,33.072916 z"
       id="path3893" />
  </g>
  <g
     inkscape:groupmode="layer"
     id="layer14"
     inkscape:label="f / v"
     style="display:none">
    <path
       id="path4013"
       style="fill:#000000;fill-opacity:1;stroke:none;stroke-width:0.264583px;stroke-linecap:butt;stroke-linejoin:miter;stroke-opacity:1"
       d="m 31.75,47.624999 c 0,0 -2.645834,-3.96875 -5.291667,-5.291666 C 23.8125,41.010416 15.875,30.427083 15.875,30.427083 c 0,0 1.322916,1.322917 10.583333,1.322917 H 47.624999 V 23.8125 H 7.9374999 L 21.166666,41.010416 c 0,0 2.645834,3.96875 2.645834,6.614583 z"
       sodipodi:nodetypes="cscscccccc" />
  </g>
  <g
     inkscape:groupmode="layer"
     id="layer15"
     inkscape:label="f devoice"
     style="display:none">
    <path
       id="path4259"
       style="fill:#000000;fill-opacity:1;stroke:none;stroke-width:0.264583px;stroke-linecap:butt;stroke-linejoin:miter;stroke-opacity:1"
       d="m 34.395833,39.6875 c 3.96875,0 3.96875,2.645833 3.96875,2.645833 H 39.6875 v -9.260417 h -1.322917 c 0,0 0,2.645834 -3.96875,2.645834 H 11.90625 l 5.291666,7.937499 h 1.322917 c 0,0 -2.645833,-3.968749 0,-3.968749 z"
       sodipodi:nodetypes="cccccsccccc" />
  </g>
  <g
     inkscape:groupmode="layer"
     id="layer16"
     inkscape:label="h"
     style="display:none">
    <path
       id="path7048"
       style="fill:#000000;fill-opacity:1;stroke:none;stroke-width:0.999999;stroke-opacity:1"
       d="M 182.5,135 A 17.500001,17.500001 0 0 0 165,152.5 17.500001,17.500001 0 0 0 182.5,170 17.500001,17.500001 0 0 0 200,152.5 17.500001,17.500001 0 0 0 182.5,135 Z m 0,5 A 12.5,12.5 0 0 1 195,152.5 12.5,12.5 0 0 1 182.5,165 12.5,12.5 0 0 1 170,152.5 12.5,12.5 0 0 1 182.5,140 Z"
       transform="scale(0.26458333)" />
  </g>
  <g
     inkscape:groupmode="layer"
     id="layer17"
     inkscape:label="j"
     style="display:none">
    <path
       style="fill:#000000;fill-opacity:1;stroke:none;stroke-width:0.264583px;stroke-linecap:butt;stroke-linejoin:miter;stroke-opacity:1"
       d="M 31.75,47.624999 V 31.75 c 0,0 0,-2.645834 -2.645834,-2.645834 -2.645833,0 -5.291666,-1.322916 -5.291666,-5.291666 0,-3.96875 6.614583,-3.96875 6.614583,-3.96875 0,0 15.875,-1.322917 17.197916,11.90625 v -7.9375 c 0,0 -5.291666,-6.614584 -17.197916,-6.614584 -11.90625,0 -14.552083,6.614584 -14.552083,9.260417 0,2.645833 2.645833,5.291666 6.614583,5.291666 3.96875,0 5.291667,2.645834 3.96875,7.9375 -1.322917,5.291667 -2.645833,7.9375 -2.645833,7.9375 H 31.75"
       id="path7360" />
  </g>
  <g
     inkscape:groupmode="layer"
     id="layer18"
     inkscape:label="l / r"
     style="display:none">
    <path
       id="path7653"
       style="fill:#000000;fill-opacity:1;stroke:none;stroke-width:0.264583px;stroke-linecap:butt;stroke-linejoin:miter;stroke-opacity:1"
       d="m 31.75,47.624999 c 0,0 -1.322917,-15.874999 15.874999,-15.874999 v -7.9375 c 0,0 -23.812499,-1.322917 -23.812499,23.812499 z"
       sodipodi:nodetypes="ccccc" />
  </g>
  <g
     inkscape:groupmode="layer"
     id="layer19"
     inkscape:label="l hook"
     style="display:none">
    <path
       id="path7891"
       style="fill:#000000;fill-opacity:1;stroke:none;stroke-width:0.264583px;stroke-linecap:butt;stroke-linejoin:miter;stroke-opacity:1"
       d="m 30.427083,31.75 c -5.291666,1.322916 -11.90625,5.291666 -9.260417,-3.96875 2.645834,-9.260417 14.552084,-9.260417 14.552084,-9.260417 0,0 -19.84375,-2.645833 -19.84375,13.229167 0,10.583333 11.90625,7.9375 11.90625,7.9375 z"
       sodipodi:nodetypes="cscccc" />
  </g>
  <g
     inkscape:groupmode="layer"
     id="layer20"
     inkscape:label="m / n"
     style="display:none">
    <path
       id="path8363"
       style="fill:#000000;fill-opacity:1;stroke:none;stroke-width:0.264583px;stroke-linecap:butt;stroke-linejoin:miter;stroke-opacity:1"
       d="M 23.812499,47.624999 V 17.197916 c 0,-9.2604162 -6.614583,-7.9374995 -6.614583,-7.9374995 V 7.9374998 l 21.166667,10e-8 v 1.3229167 c 0,0 -6.614583,-1.3229167 -6.614583,7.9374994 v 30.427083 z"
       sodipodi:nodetypes="csccccscc" />
    <path
       id="path8483"
       style="fill:#000000;fill-opacity:1;stroke:none;stroke-width:0.264583px;stroke-linecap:butt;stroke-linejoin:miter;stroke-opacity:1"
       d="M 47.624999,31.75 H 17.197916 c -9.2604161,0 -7.9374994,6.614583 -7.9374994,6.614583 H 7.9374999 l 1e-7,-21.166667 h 1.3229167 c 0,0 -1.3229167,6.614583 7.9374993,6.614583 h 30.427083 z"
       sodipodi:nodetypes="csccccscc" />
  </g>
  <g
     inkscape:groupmode="layer"
     id="layer21"
     inkscape:label="q"
     style="display:none">
    <path
       id="path8557"
       style="fill:#000000;fill-opacity:1;stroke:none;stroke-width:0.999999;stroke-opacity:1"
       d="M 70,30 A 45.000001,45.000001 0 0 0 25,75 45.000001,45.000001 0 0 0 70,120 45.000001,45.000001 0 0 0 115,75 45.000001,45.000001 0 0 0 70,30 Z m 0,10 A 35.000002,35.000002 0 0 1 105,75 35.000002,35.000002 0 0 1 70,110 35.000002,35.000002 0 0 1 35,75 35.000002,35.000002 0 0 1 70,40 Z"
       transform="scale(0.26458333)" />
    <path
       id="path9045"
       style="fill:#000000;fill-opacity:1;stroke:none;stroke-width:0.264583px;stroke-linecap:butt;stroke-linejoin:miter;stroke-opacity:1"
       d="m 23.8125,38.364583 v 9.260416 H 31.75 v -9.260416 c 0,0 0,-2.645833 -2.645834,-3.96875 -2.645833,-1.322917 -3.96875,-3.96875 -1.322916,-6.614583 2.645833,-2.645834 5.291666,-1.322917 6.614583,1.322916 C 35.71875,31.75 38.364583,31.75 38.364583,31.75 h 9.260416 v -7.9375 h -9.260416 c 0,0 -7.9375,0 -7.9375,-5.291667 l -3.96875,7.9375 -7.9375,5.291666 c 5.291667,0 5.291667,6.614584 5.291667,6.614584 z"
       sodipodi:nodetypes="ccccscscccccccc" />
  </g>
  <g
     inkscape:groupmode="layer"
     id="layer22"
     inkscape:label="s / z"
     style="display:none">
    <path
       id="path9371"
       style="fill:#000000;fill-opacity:1;stroke:none;stroke-width:0.264583px;stroke-linecap:butt;stroke-linejoin:miter;stroke-opacity:1"
       d="m 3.96875,31.75 c -1.3229167,-5.291667 1.3229166,-9.260417 3.9687499,-9.260417 2.6458331,0 6.5466961,0.203663 5.2916671,3.96875 -1.322917,3.96875 -6.6145838,0 -6.6145838,0 0,0 -1.2170884,9.467066 5.4572218,11.882302 6.219861,2.250785 17.032361,2.669781 22.324028,-3.944802 C 39.6875,27.78125 37.92361,27.340278 37.041666,23.8125 35.71875,18.520833 35.71875,13.229166 38.364583,9.2604165 c 2.645833,-3.9687499 9.260416,-5.2916666 11.90625,-2.6458333 2.645833,2.6458333 1.322916,7.9374998 -2.645834,6.6145828 -3.96875,-1.322916 -2.645833,-5.2916661 -1.322916,-6.6145828 0,0 -7.9375,0 -3.96875,10.5833328 3.96875,10.583334 5.291666,9.260417 2.645833,17.197917 C 42.333333,42.333333 31.75,47.624999 23.8125,47.624999 6.6145832,47.624999 5.2916666,37.041666 3.96875,31.75 Z"
       sodipodi:nodetypes="ssscsssssscsscs" />
    <path
       style="fill:#000000;fill-opacity:1;stroke:none;stroke-width:0.264583px;stroke-linecap:butt;stroke-linejoin:miter;stroke-opacity:1"
       d="m 41.010416,23.8125 h 6.614583 V 31.75 h -3.96875 L 31.75,44.979166 v 2.645833 h -7.9375 v -3.96875 L 37.041666,35.71875 Z"
       id="path9600"
       sodipodi:nodetypes="cccccccccc" />
  </g>
  <g
     inkscape:groupmode="layer"
     id="layer23"
     inkscape:label="z voice"
     style="display:none">
    <path
       id="path10499"
       style="fill:#000000;fill-opacity:1;stroke:none;stroke-width:0.264583px;stroke-linecap:butt;stroke-linejoin:miter;stroke-opacity:1"
       d="M 31.75,9.2604166 C 27.78125,11.90625 27.78125,15.875 29.104166,19.84375 c 1.322917,3.96875 1.322917,9.260416 -1.322916,10.583333 -2.645833,1.322917 -9.260417,0 -9.260417,-3.96875 0,0 2.645833,1.322917 2.645833,-1.322917 0,-2.645833 -1.322916,-2.645833 -2.645833,-2.645833 -1.322917,0 -3.96875,1.322917 -2.645833,3.96875 1.322916,2.645833 2.645833,5.291667 7.9375,6.614583 5.291666,1.322917 10.583333,-1.322916 10.583333,-5.291666 0,-3.96875 -3.96875,-11.90625 -2.645833,-14.552083 1.322916,-2.645834 3.96875,-3.9687504 6.614583,-2.645834 2.645833,1.322917 1.322917,-1.3229164 1.322917,-1.3229164 0,0 -3.96875,-2.6458334 -7.9375,0 z"
       sodipodi:nodetypes="ssscssssssscs" />
  </g>
  <g
     inkscape:groupmode="layer"
     id="layer24"
     inkscape:label="w"
     style="display:none">
    <path
       id="path10773"
       style="fill:#000000;fill-opacity:1;stroke:none;stroke-width:0.264583px;stroke-linecap:butt;stroke-linejoin:miter;stroke-opacity:1"
       d="m 11.90625,35.71875 c 0,0 23.8125,0 23.8125,-23.8125 h -7.9375 c 0,0 0,15.875 -15.875,15.875 z"
       sodipodi:nodetypes="ccccc" />
  </g>
  <g
     inkscape:groupmode="layer"
     id="layer25"
     inkscape:label="x"
     style="display:none">
    <path
       id="path11069"
       style="fill:#000000;fill-opacity:1;stroke:none;stroke-width:0.264583px;stroke-linecap:butt;stroke-linejoin:miter;stroke-opacity:1"
       d="m 13.229167,39.6875 c 0,0 0,-1.322917 1.322916,-1.322917 1.322917,0 1.322917,1.322917 1.322917,1.322917 0,0 0,1.322916 -2.645833,1.322916 -2.645834,0 -2.645834,-2.645833 -2.645834,-5.291666 0,-2.645834 3.96875,-3.96875 6.614583,-3.96875 2.645834,0 10.583334,3.96875 14.552084,0 3.96875,-3.96875 2.645833,-9.260417 2.645833,-9.260417 0,0 -3.96875,-7.9375 -1.322917,-10.583333 2.645834,-2.6458334 6.614584,-2.6458334 7.9375,0 1.322917,2.645833 -1.322916,3.96875 -2.645833,2.645833 -1.322917,-1.322916 0,-2.645833 1.322917,-1.322916 1.315979,-0.135312 -2.645834,-2.645834 -3.96875,-1.322917 -1.322917,1.322917 -2.645834,3.96875 0,5.291666 2.645833,1.322917 7.937499,10.583334 2.645833,17.197917 C 33.072916,41.010416 23.8125,41.010416 19.84375,38.364583 15.875,35.71875 15.875,34.395833 13.229167,35.71875 c -2.645834,1.322916 -1.322917,3.96875 0,3.96875"
       sodipodi:nodetypes="cscsssscssscsssssc" />
    <path
       style="fill:#000000;fill-opacity:1;stroke:none;stroke-width:0.264583px;stroke-linecap:butt;stroke-linejoin:miter;stroke-opacity:1"
       d="m 33.072916,14.552083 c 0,0 -2.645833,-1.322916 -5.291666,1.322917 -2.645833,2.645833 -1.322917,5.291666 0,7.9375 1.062002,2.124003 1.322916,6.614583 -2.645833,6.614583 -3.968751,0 -3.968751,-3.96875 -3.968751,-3.96875 0,0 1.322917,0 1.322917,-1.322917 0,-1.322916 0,-1.322916 -1.322917,-1.322916 -1.322916,0 -2.645833,1.322916 -2.645833,2.645833 0,1.322917 2.645833,5.291667 7.9375,5.291667 5.291667,0 5.118665,-4.314754 3.96875,-6.614584 C 29.104166,22.489583 27.78125,21.166666 29.104166,18.520833 30.427083,15.875 33.072916,15.875 33.072916,15.875 Z"
       id="path11640"
       sodipodi:nodetypes="cssscsssssscc" />
    <path
       style="fill:#000000;fill-opacity:1;stroke:none;stroke-width:0.264583px;stroke-linecap:butt;stroke-linejoin:miter;stroke-opacity:1"
       d="M 23.8125,47.624999 H 31.75 V 37.041666 L 38.364583,31.75 h 9.260416 V 23.8125 H 37.041666 l -3.96875,9.260416 -9.260416,3.96875 z"
       id="path11732" />
  </g>
  <g
     inkscape:groupmode="layer"
     id="layer26"
     inkscape:label="y"
     style="display:none">
    <path
       id="path12006"
       style="fill:#000000;fill-opacity:1;stroke:none;stroke-width:0.264583px;stroke-linecap:butt;stroke-linejoin:miter;stroke-opacity:1"
       d="m 31.75,47.624999 c 0,0 0,-25.135416 -6.614583,-33.072916 0,0 5.327665,-0.434972 7.937499,0 7.9375,1.322917 14.552083,1.322917 14.552083,17.197916 V 23.8125 c 0,0 1.322917,-15.8750001 -23.812499,-15.8750001 H 9.2604166 c 0,0 14.5520834,3.9687501 14.5520834,39.6874991 z"
       sodipodi:nodetypes="ccscccccc" />
  </g>
</svg>
